<?xml version="1.0" encoding="UTF-8" standalone="no"?>
<!-- Created with Inkscape (http://www.inkscape.org/) -->

<svg
   width="210mm"
   height="297mm"
   viewBox="0 0 210 297"
   version="1.1"
   id="svg5"
   inkscape:version="1.1.1 (3bf5ae0d25, 2021-09-20)"
   sodipodi:docname="jerma.svg"
   xmlns:inkscape="http://www.inkscape.org/namespaces/inkscape"
   xmlns:sodipodi="http://sodipodi.sourceforge.net/DTD/sodipodi-0.dtd"
   xmlns="http://www.w3.org/2000/svg"
   xmlns:svg="http://www.w3.org/2000/svg">
  <sodipodi:namedview
     id="namedview7"
     pagecolor="#ffffff"
     bordercolor="#666666"
     borderopacity="1.0"
     inkscape:pageshadow="2"
     inkscape:pageopacity="0.0"
     inkscape:pagecheckerboard="0"
     inkscape:document-units="mm"
     showgrid="false"
     inkscape:zoom="1.0998546"
     inkscape:cx="442.3312"
     inkscape:cy="575.53062"
     inkscape:window-width="1278"
     inkscape:window-height="1378"
     inkscape:window-x="1273"
     inkscape:window-y="0"
     inkscape:window-maximized="0"
     inkscape:current-layer="layer1" />
  <defs
     id="defs2" />
  <g
     inkscape:label="Layer 1"
     inkscape:groupmode="layer"
     id="layer1">
    <path
       style="fill:none;stroke:#000000;stroke-width:0.264583px;stroke-linecap:butt;stroke-linejoin:miter;stroke-opacity:1"
       d="m 84.196734,238.75788 c 2.525902,4.93152 5.172085,9.62248 8.058829,11.78754 c 2.886747,2.16506 9.261637,5.05181 12.268667,4.81124 c 3.00703,-0.24056 9.26165,0 13.11064,-2.64618 c 3.849,-2.64618 8.41968,-6.85602 10.34418,-9.86304 c 1.92449,-3.00703 11.54698,-18.76385 12.74979,-22.13172 c 1.20281,-3.36787 2.64618,-10.34417 3.96927,-12.87007 c 1.32309,-2.5259 8.29939,-8.66024 9.98333,-11.4267 c 1.68393,-2.76646 3.36787,-6.25461 4.20984,-9.86305 c 0.84196,-3.60843 1.56365,-6.25461 2.16506,-8.66023 c 0.6014,-2.40562 0.6014,-4.08956 3.48815,-4.20984 c 2.88674,-0.12028 5.0518,-3.36787 5.53292,-5.29236 c 0.48113,-1.9245 1.56366,-5.17209 1.9245,-6.73574 c 0.36084,-1.56366 -0.36084,-6.13434 -0.84197,-8.78052 c -0.48112,-2.64618 -1.08253,-8.41967 -1.08253,-9.98333 c 0,-1.56365 -2.16506,1.68394 -2.64618,4.08956 c -0.48112,2.40562 -1.08253,8.41967 -2.16506,9.74276 c -1.08253,1.3231 -2.40562,-0.72168 -2.16506,-2.76646 c 0.24056,-2.04478 1.08253,-4.69096 1.20281,-7.09658 c 0.12028,-2.40562 0.36085,-3.96928 0,-6.49518 c -0.36084,-2.5259 -1.32309,-5.17209 -0.36084,-5.77349 c 0.96225,-0.6014 2.40562,-0.96225 3.36787,0.6014 c 0.96225,1.56366 1.44337,2.88675 1.44337,4.08956 c 0,1.20281 1.56365,2.88675 1.56365,1.08253 c 0,-1.80421 -0.6014,-7.45742 -0.48112,-9.86304 c 0.12028,-2.40563 0.60141,-5.05181 0.12028,-6.73574 c -0.48112,-1.68394 -1.56365,-1.44338 -1.08253,-3.96928 c 0.48113,-2.5259 1.56366,-3.72871 1.56366,-5.77349 c 0,-2.04478 -0.96225,-3.72871 -1.56366,-4.57068 c -0.6014,-0.84197 -1.08253,-2.16505 -0.6014,-4.45039 c 0.48112,-2.28534 1.68393,-4.08956 0.72168,-5.773493 c -0.96224,-1.683935 -0.48112,-7.818268 -2.16506,-10.825295 c -1.68393,-3.007026 -1.92449,-4.570679 -4.33011,-7.337144 c -2.40562,-2.766465 -0.48113,-1.563653 -5.05181,-4.811242 c -4.57068,-3.247588 -3.24759,-3.608432 -6.85602,-6.254615 c -3.60843,-2.646182 -8.78051,-4.089556 -7.93855,-6.9763 c 0.84197,-2.886747 -3.72871,-10.344171 -11.90782,-10.945577 c -8.17911,-0.601403 -11.18614,-3.60843 -19.7261,-4.089556 c -8.53996,-0.481124 -23.454806,-0.721685 -28.266047,1.202812 c -4.811244,1.924497 -5.172086,2.766464 -8.660236,5.532927 c -3.48815,2.766464 -3.48815,2.044779 -7.216865,4.811244 c -3.728712,2.766462 -3.247588,2.766462 -6.254612,5.893771 c -3.007027,3.127306 -6.014053,5.172085 -9.141362,6.735738 c -3.127306,1.563653 -1.323092,4.690962 -4.450398,8.660236 c -3.127309,3.969274 -3.007026,1.804215 -6.374897,4.811241 c -3.367868,3.007027 -3.848992,-1.443373 -3.367868,6.495177 c 0.481124,7.938546 1.323091,8.900796 1.563653,11.667266 c 0.240562,2.76646 0.96225,8.53995 1.563653,12.14838 c 0.601406,3.60843 0.120283,3.72871 0.96225,5.89377 c 0.841968,2.16506 4.690959,3.48815 6.374895,1.80421 c 1.683935,-1.68393 2.886747,-5.89377 3.127309,-10.94557 c 0.240561,-5.0518 -0.96225,-11.18614 1.323091,-13.591755 c 2.285338,-2.405621 3.728712,-6.014054 5.773489,-9.14136 c 2.044779,-3.127306 1.804217,-5.051803 5.292367,-7.096582 c 3.48815,-2.044777 5.773489,-2.646183 8.780516,-3.247589 c 3.007026,-0.601403 6.615459,-3.848991 7.337144,-0.841967 c 0.721685,3.007026 0.962247,4.089556 1.08253,6.615459 c 0.120282,2.525903 0.962247,5.773491 -0.481124,7.818268 c -1.443374,2.044776 -1.804215,4.209835 -4.209838,4.450397 c -2.405621,0.240565 -6.134333,-0.481123 -4.209836,0.601406 c 1.924497,1.082529 5.051803,1.202812 6.615459,0.120282 c 1.563653,-1.082529 4.330115,-3.728712 4.811241,-6.254615 c 0.481124,-2.525903 0.721686,-3.969274 0.721686,-9.141359 c 0,-5.172086 -0.962247,-6.735739 1.563653,-8.419674 c 2.525903,-1.683935 5.292368,-4.209836 14.794567,-5.292365 c 9.5022,-1.08253 23.21425,-0.360844 27.90522,1.202809 c 4.69096,1.563653 12.0281,3.728712 15.63653,6.735739 c 3.60843,3.007026 6.25462,3.48815 8.53996,6.85602 c 2.28534,3.367868 1.92449,9.863045 1.92449,13.351195 c 0,3.488151 -0.96224,9.863051 1.08253,15.395971 c 2.04478,5.53293 2.76647,7.33714 3.36787,11.4267 c 0.60141,4.08956 0.84197,7.45742 0.84197,9.5022 c 0,2.04478 0,6.25462 0.24056,7.21687 c 0.24056,0.96225 0.96225,10.94557 1.32309,12.0281 c 0.36085,1.08253 2.40562,10.70501 -0.24056,7.33714 c -2.64618,-3.36786 -5.65321,-8.53995 -6.85602,-9.86304 c -1.20281,-1.32309 -4.57068,-4.4504 -7.93855,-5.65321 c -3.36787,-1.20281 -2.76646,-2.64618 -7.69799,-1.32309 c -4.93152,1.32309 -4.81124,2.04478 -3.48815,-0.96225 c 1.3231,-3.00703 2.88675,-4.57068 0.48113,-6.73574 c -2.40562,-2.16506 -4.93152,-2.64618 -6.3749,-2.16506 c -1.44337,0.48112 -4.33011,2.28534 -3.96927,4.57068 c 0.36084,2.28534 1.08253,4.08956 1.9245,5.29237 c 0.84196,1.20281 10.22389,0.84197 2.28534,3.00703 c -7.93856,2.16505 -10.8253,0.72168 -12.26867,-1.3231 c -1.44337,-2.04478 -3.48815,-3.60843 -2.40562,-7.33714 c 1.08253,-3.72872 0.96225,-4.4504 3.24758,-6.13434 c 2.28535,-1.68393 0.72169,-2.28533 6.01406,-2.88674 c 5.29237,-0.60141 9.74276,-1.80422 12.62951,-0.12028 c 2.88674,1.68393 5.41264,3.36787 6.61546,5.41264 c 1.20281,2.04478 0.24056,5.7735 -0.96225,6.73575 c -1.20281,0.96224 0,0 4.20983,-0.60141 c 4.20984,-0.60141 5.17209,-0.84197 2.28534,-1.20281 c -2.88674,-0.36084 -0.96224,-0.60141 2.04478,-1.20281 c 3.00703,-0.60141 2.40562,-1.68394 -0.6014,-1.32309 c -3.00703,0.36084 -6.61546,-0.24057 -3.00703,-1.08253 c 3.60843,-0.84197 4.20984,-2.04478 1.08253,-1.68394 c -3.12731,0.36084 0.12028,0.48113 -3.72871,-2.04478 c -3.849,-2.5259 -13.11064,-4.57068 -10.22389,-5.17208 c 2.88674,-0.6014 7.57771,-0.6014 10.46445,0.12028 c 2.88674,0.72169 7.45742,2.04478 8.05883,2.04478 c 0.60141,0 0.12028,-3.24759 -2.88674,-5.05181 c -3.00703,-1.80421 -3.12731,-2.04477 -6.01406,-3.00702 c -2.88674,-0.96225 -9.86304,-1.44337 -12.99035,-1.20281 c -3.12731,0.24056 -5.77349,0.84197 -8.41968,1.68393 c -2.64618,0.84197 -6.61545,2.16506 -4.57068,3.849 c 2.04478,1.68393 6.49518,1.92449 4.33012,3.00702 c -2.16506,1.08253 -5.77349,4.57068 -8.05883,7.57771 c -2.28535,3.00703 -3.36788,7.45743 -2.28535,10.22389 c 1.08254,2.76646 2.88676,4.20984 3.36788,6.73574 c 0.48113,2.5259 -1.68393,3.24758 2.64618,6.49517 c 4.33012,3.24759 5.53293,5.29237 4.69097,8.2994 c -0.84197,3.00702 -3.00703,5.0518 -5.29237,6.85602 c -2.28534,1.80421 -6.01406,4.4504 -8.41968,6.13433 c -2.40562,1.68393 -3.849,2.64618 -7.33715,2.64618 c -3.48815,0 -3.60843,-1.08253 -5.53293,-2.16506 c -1.924491,-1.08253 -5.0518,-1.08253 -6.976297,-2.88674 c -1.924497,-1.80422 -5.292365,-3.60843 -5.412647,-6.61546 c -0.12028,-3.00703 -0.721686,-5.41265 0.96225,-8.78052 c 1.683935,-3.36787 4.690959,-3.60843 4.811241,-5.17208 c 0.120282,-1.56366 0.962247,-3.72871 2.766465,-8.17911 c 1.804215,-4.4504 1.924497,-6.49518 2.766462,-8.41968 c 0.841966,-1.92449 2.886746,-5.0518 2.044776,-6.25461 c -0.84196,-1.20281 -4.450397,-8.17911 -10.464447,-9.86305 c -6.014053,-1.68393 -20.928904,-6.01405 -24.417054,-5.0518 c -3.48815,0.96225 -5.412648,3.84899 -7.096583,5.0518 c -1.683933,1.20281 -7.577706,6.85602 -3.969274,5.29237 c 3.608433,-1.56365 6.374895,-3.96927 10.584733,-3.96927 c 4.209836,0 8.539954,0.84196 10.584733,1.08252 c 2.044777,0.24057 5.051803,0 7.577706,1.3231 c 2.525901,1.32309 5.773489,3.00702 7.216862,4.57068 c 1.443374,1.56365 5.051804,6.37489 1.08253,4.20983 c -3.969274,-2.16506 -9.261642,-8.17911 -15.756818,-7.21686 c -6.495177,0.96225 -11.787542,4.4504 -11.907825,5.77349 c -0.120279,1.32309 0.481127,3.84899 3.367871,6.01405 c 2.886744,2.16506 12.028104,6.01405 9.742765,3.24759 c -2.285341,-2.76646 -2.285341,-6.13433 -1.202811,-7.93855 c 1.082529,-1.80422 4.690961,-2.28534 7.096582,-0.96225 c 2.405621,1.32309 4.330118,2.52591 3.608433,5.05181 c -0.721688,2.5259 -5.893774,5.17208 -5.172086,4.69096 c 0.721686,-0.48113 5.653209,-1.20281 8.299392,-1.32309 c 2.646182,-0.12028 9.261641,0.24056 0.962247,2.5259 c -8.299392,2.28534 -15.756816,2.88674 -20.568057,0.84197 c -4.811244,-2.04478 -18.403001,-2.52591 -6.254615,1.44337 c 12.148386,3.96927 15.636536,5.29237 20.688339,3.36787 c 5.051804,-1.9245 7.577707,2.5259 2.646183,8.29939 c -4.931521,5.77349 -14.313445,10.22389 -16.598784,12.26867 c -2.285341,2.04477 -6.134332,4.4504 -6.735738,6.85602 c -0.601406,2.40562 4.811241,1.44337 9.021077,3.36787 c 4.209838,1.92449 9.02108,5.17208 15.035133,7.21686 c 6.01405,2.04478 13.591756,3.12731 18.763846,2.76646 c 5.17208,-0.36084 11.90783,-2.40562 15.39598,-3.72871 c 3.48815,-1.32309 8.41967,-4.20984 11.30642,-4.93152 c 2.88675,-0.72169 6.25461,-2.5259 8.78052,-3.60843 c 2.5259,-1.08253 12.62951,-1.20281 6.85601,-5.53293 c -5.77348,-4.33012 -25.01845,-14.43373 -17.56103,-11.30642 c 7.45743,3.12731 17.68132,8.66024 19.00441,10.94557 c 1.32309,2.28535 2.04478,8.2994 0.36084,13.47148 c -1.68393,5.17209 -6.9763,20.3275 -6.9763,20.3275 c 0,0 3.12731,-11.66726 4.57068,-17.07991 c 1.44337,-5.41265 -0.24056,-12.0281 -5.29237,-8.9008 c -5.0518,3.12731 -6.25461,8.05883 -7.45742,9.98333 c -1.20281,1.9245 -2.16506,5.29237 -2.76646,2.40562 c -0.60141,-2.88674 0.84196,-6.9763 -1.80422,-5.53293 c -2.64618,1.44337 -3.60843,1.20281 -3.00703,5.05181 c 0.60141,3.84899 2.04478,7.45742 -1.20281,8.29939 c -3.24759,0.84197 -3.1273,1.08253 -3.96927,-3.48815 c -0.84197,-4.57068 -2.04478,-7.57771 -4.4504,-6.3749 c -2.40562,1.20281 -2.16506,4.57068 -2.16506,7.57771 c 0,3.00703 1.08253,6.49518 -1.44338,7.21686 c -2.5259,0.72169 -7.33715,1.32309 -7.33715,-2.64618 c 0,-3.96927 -0.24056,-5.53293 -0.48112,-7.33714 c -0.24056,-1.80422 -1.32309,-3.12731 -4.33012,-3.00703 c -3.00702,0.12028 -4.811239,-0.24056 -5.172083,2.76646 c -0.360844,3.00703 -0.721686,5.41265 -0.841968,6.73574 c -0.120279,1.32309 -1.082529,2.64618 -2.165059,2.5259 c -1.082529,-0.12028 -3.848994,-1.44337 -3.608429,-3.1273 c 0.240561,-1.68394 0.601403,-4.4504 0.601403,-6.25462 c 0,-1.80421 -1.08253,-3.48815 -2.405621,-3.48815 c -1.323091,0 -1.683935,1.80422 -1.804215,3.849 c -0.120282,2.04477 -0.601406,3.96927 -1.443373,2.64618 c -0.841968,-1.32309 -1.443371,-4.81124 -1.443371,-6.25462 c 0,-1.44337 0.120279,-2.76646 -1.08253,-3.84899 c -1.202811,-1.08253 -5.292367,-5.65321 -3.848994,-1.56365 c 1.443374,4.08955 3.848994,7.69798 5.292365,10.22389 c 1.443374,2.5259 3.48815,4.45039 6.014053,5.77349 c 2.525903,1.32309 6.976301,3.48815 10.584732,3.60843 c 3.60843,0.12028 10.46445,0.48112 12.99035,-0.24056 c 2.52592,-0.72169 5.29238,-2.76647 9.02109,-4.08956 c 3.72871,-1.32309 5.17209,-3.00703 7.69799,-5.29237 c 2.5259,-2.28534 3.96927,-3.36787 2.28534,0 c -1.68393,3.36787 -3.84899,6.49518 -5.0518,6.25462 c -1.20282,-0.24056 -1.56366,0.36084 -2.28535,1.44337 c -0.72168,1.08253 -2.88674,-0.84197 -3.60843,0.36084 c -0.72168,1.20281 -0.72168,3.24759 -1.92449,2.64619 c -1.20281,-0.60141 -2.28534,-0.84197 -2.76647,0.6014 c -0.48112,1.44337 -1.08253,0.72169 -3.00703,1.68394 c -1.9245,0.96225 -5.29237,2.28534 -8.05883,1.68393 c -2.76647,-0.6014 -7.09659,-2.04478 -9.141363,-3.00703 c -2.044777,-0.96224 -3.848994,-1.92449 -4.931524,-2.16505 c -1.082529,-0.24057 -5.653209,-4.93153 -3.848991,-1.44338 c 1.804214,3.48816 2.165059,3.36787 3.127306,4.57068 c 0.962247,1.20281 3.247588,3.96928 2.886744,1.56366 c -0.360841,-2.40562 -0.962247,-3.96928 1.08253,-3.00703 c 2.044779,0.96225 3.36787,0.36085 2.886747,3.24759 c -0.481127,2.88674 1.683931,3.48815 3.247591,3.60843 c 1.56365,0.12028 1.56365,0 1.56365,-2.16506 c 0,-2.16506 0.60141,-1.44337 2.16506,-1.20281 c 1.56365,0.24056 3.12731,0.48112 3.00703,2.88675 c -0.12029,2.40562 2.28533,1.08253 3.1273,0.96225 c 0.84197,-0.12029 1.20281,-1.20282 1.20281,-2.52591 c 0,-1.32309 0.12028,-2.88674 1.80422,-3.1273 c 1.68394,-0.24057 2.52591,1.44337 2.52591,2.76646 c 0,1.32309 -0.24056,1.44337 2.16506,0.6014 c 2.40562,-0.84196 2.40562,-1.68393 2.28534,-3.72871 c -0.12028,-2.04477 0.48112,-4.93152 1.44337,-4.4504 c 0.96225,0.48113 3.00703,2.04478 3.00703,3.24759 c 0,1.20281 2.16506,-4.33011 2.76646,-4.4504 c 0.60141,-0.12028 1.68394,1.80422 -1.80421,5.29237 c -3.48815,3.48815 -9.62249,5.77349 -13.23093,6.3749 c -3.60843,0.6014 -7.45742,0.84196 -11.4267,0 c -3.969274,-0.84197 -7.697986,-0.72169 -10.825294,-5.17209 c -3.127307,-4.4504 -7.216863,-9.26164 -8.419672,-11.90782 c -1.202811,-2.64619 -7.93855,-13.9526 -11.065856,-14.91485 c -3.127309,-0.96225 -8.539956,-5.53293 -8.058833,-2.28534 c 0.481127,3.24759 0.96225,7.5777 2.646185,10.22389 c 1.683933,2.64618 1.563654,1.44337 3.60843,6.25461 c 2.04478,4.81124 4.330118,7.45742 5.292368,10.46445 c 0.962247,3.00703 1.683933,10.22389 -2.165059,7.21686 c -3.848994,-3.00702 -10.584733,-10.58473 -12.268668,-13.47147 c -1.683935,-2.88675 -6.615456,-13.11064 -7.457424,-16.59879 c -0.841968,-3.48815 -2.405621,-17.20019 -2.285341,-20.3275 c 0.120282,-3.1273 0.481123,-27.78492 0.481123,-30.67166 c 0,-2.88675 1.323094,-10.34417 -1.323091,-10.94558 c -2.646182,-0.6014 -6.254615,-1.9245 -5.893771,5.41265 c 0.360844,7.33714 2.525903,9.14136 2.044779,11.90782 c -0.481126,2.76647 -1.323093,8.29939 -1.323093,11.18614 c 0,2.88675 -0.481124,7.21686 0,9.74276 c 0.481126,2.52591 2.886747,7.69799 4.089556,10.94558 c 1.202811,3.24759 3.608432,9.02108 4.570679,12.38895 c 0.96225,3.36787 4.209839,13.47148 6.254615,15.63653 c 2.04478,2.16506 10.825295,13.95261 13.59176,15.39598 c 2.766464,1.44337 4.450397,3.96927 6.735738,8.17911 c 2.285341,4.20984 7.216863,12.38895 7.216863,12.38895 z"
       id="path54" />
  </g>
</svg>
